# Blender v2.64 (sub 0) OBJ File: ''
# www.blender.org
o Sphere
v -0.309017 0.951057 0.000000
v -0.587785 0.809017 0.000000
v -0.809017 0.587785 0.000000
v -0.951057 0.309017 0.000000
v -1.000000 -0.000000 0.000000
v -0.951056 -0.309017 0.000000
v -0.809017 -0.587785 0.000000
v -0.587785 -0.809017 0.000000
v -0.309017 -0.951057 0.000000
v -0.285494 0.951056 -0.118256
v -0.543043 0.809017 -0.224936
v -0.747434 0.587785 -0.309598
v -0.878662 0.309017 -0.363954
v -0.923880 -0.000000 -0.382684
v -0.878662 -0.309017 -0.363954
v -0.747434 -0.587785 -0.309598
v -0.543043 -0.809017 -0.224936
v -0.285494 -0.951057 -0.118256
v -0.218508 0.951056 -0.218508
v -0.415627 0.809017 -0.415627
v -0.572061 0.587785 -0.572062
v -0.672498 0.309017 -0.672499
v -0.707107 -0.000000 -0.707107
v -0.672498 -0.309017 -0.672499
v -0.572061 -0.587785 -0.572062
v -0.415627 -0.809017 -0.415627
v -0.218508 -0.951057 -0.218508
v -0.118255 0.951056 -0.285495
v -0.224935 0.809017 -0.543043
v -0.309597 0.587785 -0.747434
v -0.363953 0.309017 -0.878662
v -0.382683 -0.000000 -0.923880
v -0.363953 -0.309017 -0.878662
v -0.309597 -0.587785 -0.747434
v -0.224935 -0.809017 -0.543043
v -0.118255 -0.951057 -0.285495
v 0.000000 0.951056 -0.309017
v 0.000000 0.809017 -0.587785
v 0.000000 0.587785 -0.809017
v 0.000000 0.309017 -0.951057
v 0.000000 -0.000000 -1.000000
v 0.000000 -0.309017 -0.951057
v 0.000000 -0.587785 -0.809017
v 0.000000 -0.809017 -0.587785
v 0.000000 -0.951057 -0.309017
v 0.118256 0.951056 -0.285495
v 0.224936 0.809017 -0.543043
v 0.309598 0.587785 -0.747434
v 0.363954 0.309017 -0.878662
v 0.382684 -0.000000 -0.923880
v 0.363954 -0.309017 -0.878662
v 0.309598 -0.587785 -0.747434
v 0.224936 -0.809017 -0.543043
v 0.118256 -0.951057 -0.285495
v 0.218509 0.951056 -0.218508
v 0.415627 0.809017 -0.415627
v 0.572062 0.587785 -0.572062
v 0.672499 0.309017 -0.672499
v 0.707107 -0.000000 -0.707107
v 0.672499 -0.309017 -0.672499
v 0.572062 -0.587785 -0.572062
v 0.415627 -0.809017 -0.415627
v 0.218508 -0.951057 -0.218508
v 0.285495 0.951056 -0.118256
v 0.543043 0.809017 -0.224936
v 0.747435 0.587785 -0.309597
v 0.878662 0.309017 -0.363954
v 0.923880 -0.000000 -0.382683
v 0.878662 -0.309017 -0.363954
v 0.747435 -0.587785 -0.309597
v 0.543043 -0.809017 -0.224936
v 0.285495 -0.951057 -0.118256
v 0.000000 -1.000000 0.000000
v 0.309018 0.951056 0.000000
v 0.587786 0.809017 0.000000
v 0.809017 0.587785 0.000000
v 0.951057 0.309017 -0.000000
v 1.000000 -0.000000 0.000000
v 0.951057 -0.309017 -0.000000
v 0.809017 -0.587785 0.000000
v 0.587786 -0.809017 0.000000
v 0.309017 -0.951057 0.000000
v 0.285495 0.951056 0.118256
v 0.543043 0.809017 0.224936
v 0.747435 0.587785 0.309597
v 0.878662 0.309017 0.363954
v 0.923880 -0.000000 0.382684
v 0.878662 -0.309017 0.363954
v 0.747435 -0.587785 0.309597
v 0.543043 -0.809017 0.224936
v 0.285495 -0.951057 0.118256
v 0.218508 0.951056 0.218508
v 0.415627 0.809017 0.415627
v 0.572062 0.587785 0.572061
v 0.672499 0.309017 0.672498
v 0.707107 -0.000000 0.707107
v 0.672499 -0.309017 0.672498
v 0.572062 -0.587785 0.572061
v 0.415627 -0.809017 0.415627
v 0.218508 -0.951057 0.218508
v 0.118256 0.951056 0.285495
v 0.224936 0.809017 0.543043
v 0.309598 0.587785 0.747434
v 0.363954 0.309017 0.878662
v 0.382684 -0.000000 0.923880
v 0.363954 -0.309017 0.878662
v 0.309598 -0.587785 0.747434
v 0.224936 -0.809017 0.543043
v 0.118256 -0.951057 0.285495
v 0.000000 0.951056 0.309017
v 0.000000 0.809017 0.587785
v 0.000000 0.587785 0.809017
v 0.000000 0.309017 0.951056
v 0.000000 -0.000000 1.000000
v 0.000000 -0.309017 0.951056
v 0.000000 -0.587785 0.809017
v 0.000000 -0.809017 0.587785
v 0.000000 -0.951057 0.309017
v 0.000000 1.000000 0.000000
v -0.118255 0.951056 0.285495
v -0.224935 0.809017 0.543043
v -0.309597 0.587785 0.747434
v -0.363953 0.309017 0.878662
v -0.382683 -0.000000 0.923880
v -0.363953 -0.309017 0.878662
v -0.309597 -0.587785 0.747434
v -0.224935 -0.809017 0.543043
v -0.118255 -0.951057 0.285495
v -0.218508 0.951056 0.218508
v -0.415627 0.809017 0.415627
v -0.572061 0.587785 0.572061
v -0.672498 0.309017 0.672499
v -0.707107 -0.000000 0.707107
v -0.672498 -0.309017 0.672499
v -0.572061 -0.587785 0.572061
v -0.415627 -0.809017 0.415627
v -0.218508 -0.951057 0.218508
v -0.285494 0.951056 0.118256
v -0.543042 0.809017 0.224936
v -0.747434 0.587785 0.309597
v -0.878661 0.309017 0.363954
v -0.923879 -0.000000 0.382683
v -0.878661 -0.309017 0.363954
v -0.747434 -0.587785 0.309597
v -0.543042 -0.809017 0.224936
v -0.285494 -0.951057 0.118256
vn -0.452150 -0.887396 -0.089938
vn -0.700214 0.700215 -0.139281
vn -0.877334 0.447024 -0.174513
vn -0.969162 0.153500 -0.192778
vn -0.969162 -0.153500 -0.192778
vn -0.877334 -0.447024 -0.174513
vn -0.700215 -0.700214 -0.139281
vn -0.452151 0.887395 -0.089939
vn -0.821616 0.153500 -0.548986
vn -0.821616 -0.153500 -0.548986
vn -0.743768 -0.447024 -0.496970
vn -0.593613 -0.700214 -0.396640
vn -0.383315 0.887396 -0.256123
vn -0.383315 -0.887396 -0.256123
vn -0.593613 0.700215 -0.396640
vn -0.743768 0.447024 -0.496970
vn -0.256123 0.887396 -0.383315
vn -0.256123 -0.887396 -0.383315
vn -0.396640 0.700215 -0.593613
vn -0.496970 0.447024 -0.743768
vn -0.548986 0.153500 -0.821616
vn -0.548986 -0.153500 -0.821616
vn -0.496970 -0.447024 -0.743768
vn -0.396640 -0.700214 -0.593613
vn -0.192778 -0.153500 -0.969162
vn -0.174512 -0.447024 -0.877334
vn -0.139281 -0.700214 -0.700215
vn -0.089938 0.887396 -0.452151
vn -0.089938 -0.887396 -0.452151
vn -0.139281 0.700215 -0.700214
vn -0.174513 0.447024 -0.877334
vn -0.192778 0.153500 -0.969162
vn 0.174513 0.447024 -0.877334
vn 0.192778 0.153500 -0.969162
vn 0.192778 -0.153500 -0.969162
vn 0.174513 -0.447024 -0.877334
vn 0.139281 -0.700215 -0.700214
vn 0.089938 0.887396 -0.452151
vn 0.089938 -0.887396 -0.452151
vn 0.139281 0.700215 -0.700214
vn 0.496970 -0.447024 -0.743768
vn 0.396640 -0.700214 -0.593613
vn 0.256123 0.887396 -0.383315
vn 0.256123 -0.887396 -0.383315
vn 0.396640 0.700215 -0.593613
vn 0.496970 0.447024 -0.743768
vn 0.548986 0.153500 -0.821615
vn 0.548986 -0.153500 -0.821615
vn 0.821616 0.153500 -0.548986
vn 0.821616 -0.153500 -0.548986
vn 0.743768 -0.447024 -0.496970
vn 0.593613 -0.700214 -0.396640
vn 0.383315 0.887396 -0.256123
vn 0.383315 -0.887396 -0.256123
vn 0.593613 0.700215 -0.396639
vn 0.743768 0.447024 -0.496970
vn 0.700215 -0.700214 -0.139281
vn 0.452151 0.887395 -0.089938
vn 0.452151 -0.887395 -0.089938
vn 0.700214 0.700215 -0.139281
vn 0.877334 0.447024 -0.174513
vn 0.969162 0.153500 -0.192778
vn 0.969162 -0.153500 -0.192778
vn 0.877334 -0.447024 -0.174513
vn 0.969162 -0.153500 0.192778
vn 0.877334 -0.447024 0.174513
vn 0.700215 -0.700215 0.139281
vn 0.452151 0.887395 0.089938
vn 0.452151 -0.887396 0.089938
vn 0.700214 0.700215 0.139281
vn 0.877334 0.447024 0.174513
vn 0.969162 0.153500 0.192778
vn 0.593613 0.700215 0.396640
vn 0.743768 0.447024 0.496970
vn 0.821616 0.153500 0.548986
vn 0.821616 -0.153500 0.548986
vn 0.743768 -0.447024 0.496970
vn 0.593613 -0.700214 0.396640
vn 0.383315 0.887395 0.256123
vn 0.383315 -0.887395 0.256123
vn 0.496970 -0.447024 0.743768
vn 0.396640 -0.700214 0.593613
vn 0.256123 0.887395 0.383315
vn 0.256123 -0.887395 0.383315
vn 0.396640 0.700214 0.593613
vn 0.496970 0.447024 0.743768
vn 0.548986 0.153500 0.821616
vn 0.548986 -0.153500 0.821616
vn 0.192778 0.153500 0.969162
vn 0.192778 -0.153500 0.969162
vn 0.174512 -0.447024 0.877334
vn 0.139281 -0.700214 0.700215
vn 0.089938 0.887395 0.452151
vn 0.089938 -0.887395 0.452151
vn 0.139281 0.700215 0.700215
vn 0.174512 0.447024 0.877334
vn -0.139281 -0.700214 0.700215
vn -0.089938 0.887395 0.452151
vn -0.089938 -0.887395 0.452151
vn -0.139281 0.700215 0.700215
vn -0.174513 0.447024 0.877334
vn -0.192778 0.153501 0.969162
vn -0.192778 -0.153501 0.969162
vn -0.174513 -0.447024 0.877334
vn -0.548986 -0.153501 0.821615
vn -0.496970 -0.447024 0.743768
vn -0.396640 -0.700214 0.593613
vn -0.256123 0.887395 0.383315
vn -0.256123 -0.887396 0.383315
vn -0.396640 0.700215 0.593613
vn -0.496970 0.447024 0.743768
vn -0.548986 0.153501 0.821615
vn -0.383315 -0.887395 0.256123
vn -0.593613 0.700215 0.396639
vn -0.743768 0.447024 0.496970
vn -0.821615 0.153501 0.548986
vn -0.821615 -0.153501 0.548986
vn -0.743768 -0.447024 0.496970
vn -0.593613 -0.700214 0.396640
vn -0.383315 0.887395 0.256123
vn -0.156358 -0.987211 -0.031102
vn -0.156359 0.987211 -0.031102
vn -0.132555 0.987211 -0.088570
vn -0.132554 -0.987211 -0.088570
vn -0.088570 -0.987211 -0.132554
vn -0.088570 0.987211 -0.132554
vn -0.031102 0.987211 -0.156359
vn -0.031102 -0.987211 -0.156358
vn 0.031102 -0.987211 -0.156358
vn 0.031102 0.987211 -0.156359
vn 0.088570 0.987211 -0.132554
vn 0.088570 -0.987211 -0.132554
vn 0.132554 0.987211 -0.088570
vn 0.132554 -0.987211 -0.088570
vn 0.156358 -0.987211 -0.031102
vn 0.156359 0.987211 -0.031102
vn 0.156359 0.987211 0.031102
vn 0.156358 -0.987211 0.031102
vn 0.132554 -0.987211 0.088570
vn 0.132555 0.987211 0.088570
vn 0.088570 0.987211 0.132555
vn 0.088570 -0.987211 0.132554
vn 0.031102 0.987211 0.156359
vn 0.031102 -0.987211 0.156358
vn -0.031102 -0.987211 0.156359
vn -0.031102 0.987211 0.156359
vn -0.088570 0.987211 0.132555
vn -0.088570 -0.987211 0.132554
vn -0.132554 -0.987211 0.088570
vn -0.132555 0.987211 0.088570
vn -0.877334 -0.447024 0.174514
vn -0.156359 0.987211 0.031102
vn -0.700214 -0.700214 0.139282
vn -0.452151 0.887396 0.089939
vn -0.452151 -0.887396 0.089939
vn -0.700214 0.700214 0.139282
vn -0.156358 -0.987211 0.031102
vn -0.877334 0.447024 0.174514
vn -0.969161 0.153500 0.192779
vn -0.969161 -0.153500 0.192779
s off
f 17//1 18//1 9//1
f 17//1 9//1 8//1
f 11//2 12//2 3//2
f 11//2 3//2 2//2
f 12//3 13//3 4//3
f 12//3 4//3 3//3
f 13//4 14//4 5//4
f 13//4 5//4 4//4
f 14//5 15//5 6//5
f 14//5 6//5 5//5
f 15//6 16//6 7//6
f 15//6 7//6 6//6
f 16//7 17//7 8//7
f 16//7 8//7 7//7
f 2//8 1//8 10//8
f 2//8 10//8 11//8
f 22//9 23//9 14//9
f 22//9 14//9 13//9
f 23//10 24//10 15//10
f 23//10 15//10 14//10
f 24//11 25//11 16//11
f 24//11 16//11 15//11
f 25//12 26//12 17//12
f 25//12 17//12 16//12
f 19//13 20//13 11//13
f 19//13 11//13 10//13
f 26//14 27//14 18//14
f 26//14 18//14 17//14
f 20//15 21//15 12//15
f 20//15 12//15 11//15
f 21//16 22//16 13//16
f 21//16 13//16 12//16
f 28//17 29//17 20//17
f 28//17 20//17 19//17
f 35//18 36//18 27//18
f 35//18 27//18 26//18
f 29//19 30//19 21//19
f 29//19 21//19 20//19
f 30//20 31//20 22//20
f 30//20 22//20 21//20
f 31//21 32//21 23//21
f 31//21 23//21 22//21
f 32//22 33//22 24//22
f 32//22 24//22 23//22
f 33//23 34//23 25//23
f 33//23 25//23 24//23
f 34//24 35//24 26//24
f 34//24 26//24 25//24
f 41//25 42//25 33//25
f 41//25 33//25 32//25
f 42//26 43//26 34//26
f 42//26 34//26 33//26
f 43//27 44//27 35//27
f 43//27 35//27 34//27
f 37//28 38//28 29//28
f 37//28 29//28 28//28
f 44//29 45//29 36//29
f 44//29 36//29 35//29
f 38//30 39//30 30//30
f 38//30 30//30 29//30
f 39//31 40//31 31//31
f 39//31 31//31 30//31
f 40//32 41//32 32//32
f 40//32 32//32 31//32
f 48//33 49//33 40//33
f 48//33 40//33 39//33
f 49//34 50//34 41//34
f 49//34 41//34 40//34
f 50//35 51//35 42//35
f 50//35 42//35 41//35
f 51//36 52//36 43//36
f 51//36 43//36 42//36
f 52//37 53//37 44//37
f 52//37 44//37 43//37
f 46//38 47//38 38//38
f 46//38 38//38 37//38
f 53//39 54//39 45//39
f 53//39 45//39 44//39
f 47//40 48//40 39//40
f 47//40 39//40 38//40
f 60//41 61//41 52//41
f 60//41 52//41 51//41
f 61//42 62//42 53//42
f 61//42 53//42 52//42
f 55//43 56//43 47//43
f 55//43 47//43 46//43
f 62//44 63//44 54//44
f 62//44 54//44 53//44
f 56//45 57//45 48//45
f 56//45 48//45 47//45
f 57//46 58//46 49//46
f 57//46 49//46 48//46
f 58//47 59//47 50//47
f 58//47 50//47 49//47
f 59//48 60//48 51//48
f 59//48 51//48 50//48
f 67//49 68//49 59//49
f 67//49 59//49 58//49
f 68//50 69//50 60//50
f 68//50 60//50 59//50
f 69//51 70//51 61//51
f 69//51 61//51 60//51
f 70//52 71//52 62//52
f 70//52 62//52 61//52
f 64//53 65//53 56//53
f 64//53 56//53 55//53
f 71//54 72//54 63//54
f 71//54 63//54 62//54
f 65//55 66//55 57//55
f 65//55 57//55 56//55
f 66//56 67//56 58//56
f 66//56 58//56 57//56
f 80//57 81//57 71//57
f 80//57 71//57 70//57
f 74//58 75//58 65//58
f 74//58 65//58 64//58
f 81//59 82//59 72//59
f 81//59 72//59 71//59
f 75//60 76//60 66//60
f 75//60 66//60 65//60
f 76//61 77//61 67//61
f 76//61 67//61 66//61
f 77//62 78//62 68//62
f 77//62 68//62 67//62
f 78//63 79//63 69//63
f 78//63 69//63 68//63
f 79//64 80//64 70//64
f 79//64 70//64 69//64
f 87//65 88//65 79//65
f 87//65 79//65 78//65
f 88//66 89//66 80//66
f 88//66 80//66 79//66
f 89//67 90//67 81//67
f 89//67 81//67 80//67
f 83//68 84//68 75//68
f 83//68 75//68 74//68
f 90//69 91//69 82//69
f 90//69 82//69 81//69
f 84//70 85//70 76//70
f 84//70 76//70 75//70
f 85//71 86//71 77//71
f 85//71 77//71 76//71
f 86//72 87//72 78//72
f 86//72 78//72 77//72
f 93//73 94//73 85//73
f 93//73 85//73 84//73
f 94//74 95//74 86//74
f 94//74 86//74 85//74
f 95//75 96//75 87//75
f 95//75 87//75 86//75
f 96//76 97//76 88//76
f 96//76 88//76 87//76
f 97//77 98//77 89//77
f 97//77 89//77 88//77
f 98//78 99//78 90//78
f 98//78 90//78 89//78
f 92//79 93//79 84//79
f 92//79 84//79 83//79
f 99//80 100//80 91//80
f 99//80 91//80 90//80
f 106//81 107//81 98//81
f 106//81 98//81 97//81
f 107//82 108//82 99//82
f 107//82 99//82 98//82
f 101//83 102//83 93//83
f 101//83 93//83 92//83
f 108//84 109//84 100//84
f 108//84 100//84 99//84
f 102//85 103//85 94//85
f 102//85 94//85 93//85
f 103//86 104//86 95//86
f 103//86 95//86 94//86
f 104//87 105//87 96//87
f 104//87 96//87 95//87
f 105//88 106//88 97//88
f 105//88 97//88 96//88
f 113//89 114//89 105//89
f 113//89 105//89 104//89
f 114//90 115//90 106//90
f 114//90 106//90 105//90
f 115//91 116//91 107//91
f 115//91 107//91 106//91
f 116//92 117//92 108//92
f 116//92 108//92 107//92
f 110//93 111//93 102//93
f 110//93 102//93 101//93
f 117//94 118//94 109//94
f 117//94 109//94 108//94
f 111//95 112//95 103//95
f 111//95 103//95 102//95
f 112//96 113//96 104//96
f 112//96 104//96 103//96
f 126//97 127//97 117//97
f 126//97 117//97 116//97
f 120//98 121//98 111//98
f 120//98 111//98 110//98
f 127//99 128//99 118//99
f 127//99 118//99 117//99
f 121//100 122//100 112//100
f 121//100 112//100 111//100
f 122//101 123//101 113//101
f 122//101 113//101 112//101
f 123//102 124//102 114//102
f 123//102 114//102 113//102
f 124//103 125//103 115//103
f 124//103 115//103 114//103
f 125//104 126//104 116//104
f 125//104 116//104 115//104
f 133//105 134//105 125//105
f 133//105 125//105 124//105
f 134//106 135//106 126//106
f 134//106 126//106 125//106
f 135//107 136//107 127//107
f 135//107 127//107 126//107
f 129//108 130//108 121//108
f 129//108 121//108 120//108
f 136//109 137//109 128//109
f 136//109 128//109 127//109
f 130//110 131//110 122//110
f 130//110 122//110 121//110
f 131//111 132//111 123//111
f 131//111 123//111 122//111
f 132//112 133//112 124//112
f 132//112 124//112 123//112
f 145//113 146//113 137//113
f 145//113 137//113 136//113
f 139//114 140//114 131//114
f 139//114 131//114 130//114
f 140//115 141//115 132//115
f 140//115 132//115 131//115
f 141//116 142//116 133//116
f 141//116 133//116 132//116
f 142//117 143//117 134//117
f 142//117 134//117 133//117
f 143//118 144//118 135//118
f 143//118 135//118 134//118
f 144//119 145//119 136//119
f 144//119 136//119 135//119
f 138//120 139//120 130//120
f 138//120 130//120 129//120
f 18//121 73//121 9//121
f 10//122 1//122 119//122
f 119//123 19//123 10//123
f 27//124 73//124 18//124
f 36//125 73//125 27//125
f 119//126 28//126 19//126
f 119//127 37//127 28//127
f 45//128 73//128 36//128
f 54//129 73//129 45//129
f 119//130 46//130 37//130
f 119//131 55//131 46//131
f 63//132 73//132 54//132
f 119//133 64//133 55//133
f 72//134 73//134 63//134
f 82//135 73//135 72//135
f 119//136 74//136 64//136
f 119//137 83//137 74//137
f 91//138 73//138 82//138
f 100//139 73//139 91//139
f 119//140 92//140 83//140
f 119//141 101//141 92//141
f 109//142 73//142 100//142
f 119//143 110//143 101//143
f 118//144 73//144 109//144
f 128//145 73//145 118//145
f 119//146 120//146 110//146
f 119//147 129//147 120//147
f 137//148 73//148 128//148
f 146//149 73//149 137//149
f 119//150 138//150 129//150
f 6//151 7//151 144//151
f 6//151 144//151 143//151
f 119//152 1//152 138//152
f 7//153 8//153 145//153
f 7//153 145//153 144//153
f 1//154 2//154 139//154
f 1//154 139//154 138//154
f 8//155 9//155 146//155
f 8//155 146//155 145//155
f 2//156 3//156 140//156
f 2//156 140//156 139//156
f 9//157 73//157 146//157
f 3//158 4//158 141//158
f 3//158 141//158 140//158
f 4//159 5//159 142//159
f 4//159 142//159 141//159
f 5//160 6//160 143//160
f 5//160 143//160 142//160
